<?xml version="1.0" encoding="UTF-8" standalone="no"?>
<!-- Created with Inkscape (http://www.inkscape.org/) -->

<svg
   xmlns:dc="http://purl.org/dc/elements/1.1/"
   xmlns:cc="http://creativecommons.org/ns#"
   xmlns:rdf="http://www.w3.org/1999/02/22-rdf-syntax-ns#"
   xmlns:svg="http://www.w3.org/2000/svg"
   xmlns="http://www.w3.org/2000/svg"
   xmlns:sodipodi="http://sodipodi.sourceforge.net/DTD/sodipodi-0.dtd"
   xmlns:inkscape="http://www.inkscape.org/namespaces/inkscape"
   width="210mm"
   height="297mm"
   viewBox="0 0 210 297"
   version="1.1"
   id="svg8"
   inkscape:version="0.92.3 (2405546, 2018-03-11)"
   sodipodi:docname="auro.svg">
  <defs
     id="defs2">
    <marker
       style="overflow:visible"
       refY="0.0"
       refX="0.0"
       orient="auto"
       id="DistanceX">
      <path
         id="path12"
         style="stroke:#000000; stroke-width:0.5"
         d="M 3,-3 L -3,3 M 0,-5 L  0,5" />
    </marker>
    <symbol
       id="*MODEL_SPACE" />
    <symbol
       id="*PAPER_SPACE" />
    <marker
       style="overflow:visible"
       refY="0.0"
       refX="0.0"
       orient="auto"
       id="DistanceX-1">
      <path
         id="path82"
         style="stroke:#000000; stroke-width:0.5"
         d="M 3,-3 L -3,3 M 0,-5 L  0,5" />
    </marker>
    <symbol
       id="*MODEL_SPACE-7" />
    <symbol
       id="*PAPER_SPACE-3" />
    <marker
       style="overflow:visible"
       refY="0.0"
       refX="0.0"
       orient="auto"
       id="DistanceX-8">
      <path
         id="path195"
         style="stroke:#000000; stroke-width:0.5"
         d="M 3,-3 L -3,3 M 0,-5 L  0,5" />
    </marker>
    <symbol
       id="*MODEL_SPACE-3" />
    <symbol
       id="*PAPER_SPACE-7" />
  </defs>
  <sodipodi:namedview
     id="base"
     pagecolor="#ffffff"
     bordercolor="#666666"
     borderopacity="1.0"
     inkscape:pageopacity="0.0"
     inkscape:pageshadow="2"
     inkscape:zoom="0.24748737"
     inkscape:cx="761.92829"
     inkscape:cy="591.86173"
     inkscape:document-units="mm"
     inkscape:current-layer="g228"
     showgrid="false"
     inkscape:window-width="1366"
     inkscape:window-height="705"
     inkscape:window-x="-8"
     inkscape:window-y="-8"
     inkscape:window-maximized="1" />
  <metadata
     id="metadata5">
    <rdf:RDF>
      <cc:Work
         rdf:about="">
        <dc:format>image/svg+xml</dc:format>
        <dc:type
           rdf:resource="http://purl.org/dc/dcmitype/StillImage" />
        <dc:title></dc:title>
      </cc:Work>
    </rdf:RDF>
  </metadata>
  <g
     inkscape:label="Layer 1"
     inkscape:groupmode="layer"
     id="layer1">
    <g
       id="g51"
       inkscape:label="0"
       transform="matrix(0.26458333,0,0,0.26458333,80.130952,-166.64583)">
      <path
         id="path19"
         style="fill:none;stroke:#000000"
         d="m 348.58268,967.66905 a 212.59842,212.59842 0 0 1 0,386.52915 v -86.9654 H 171.41733 v 86.9654 a 212.59842,212.59842 0 0 1 0,-386.52915 v 86.96535 h 177.16535 z"
         inkscape:connector-curvature="0" />
      <path
         id="path23"
         style="fill:none;stroke:#000000"
         d="m 171.41733,1354.1982 v -86.9654"
         inkscape:connector-curvature="0" />
      <path
         id="path25"
         style="fill:none;stroke:#000000"
         d="M 171.41733,1267.2328 H 348.58268"
         inkscape:connector-curvature="0" />
      <path
         id="path27"
         style="fill:none;stroke:#000000"
         d="m 348.58268,1267.2328 v 86.9654"
         inkscape:connector-curvature="0" />
      <path
         id="path29"
         style="fill:none;stroke:#000000"
         d="m 348.58268,967.66905 v 86.96535"
         inkscape:connector-curvature="0" />
      <path
         id="path31"
         style="fill:none;stroke:#000000"
         d="M 348.58268,1054.6344 H 171.41733"
         inkscape:connector-curvature="0" />
      <path
         id="path33"
         style="fill:none;stroke:#000000"
         d="M 171.41733,1054.6344 V 967.66905"
         inkscape:connector-curvature="0" />
      <path
         id="path35"
         style="fill:none;stroke:#000000"
         d="m 137.0135,1249.2351 a 5.314961,5.314961 0 1 0 -10.62992,0 5.314961,5.314961 0 1 0 10.62992,0 z"
         inkscape:connector-curvature="0" />
      <path
         id="path37"
         style="fill:none;stroke:#000000"
         d="m 141.29921,1036.9179 a 5.314961,5.314961 0 1 0 -10.62992,0 5.314961,5.314961 0 1 0 10.62992,0 z"
         inkscape:connector-curvature="0" />
      <path
         id="path39"
         style="fill:none;stroke:#000000"
         d="m 389.33071,1036.9179 a 5.314961,5.314961 0 1 0 -10.62992,0 5.314961,5.314961 0 1 0 10.62992,0 z"
         inkscape:connector-curvature="0" />
      <path
         id="path41"
         style="fill:none;stroke:#000000"
         d="m 389.33071,1284.9494 a 5.314961,5.314961 0 1 0 -10.62992,0 5.314961,5.314961 0 1 0 10.62992,0 z"
         inkscape:connector-curvature="0" />
      <path
         id="path43"
         style="fill:none;stroke:#000000"
         d="m 81.488193,1095.3824 a 5.2086615,5.2086615 0 1 0 -10.41732,0 5.2086615,5.2086615 0 1 0 10.41732,0 z"
         inkscape:connector-curvature="0" />
      <path
         id="path45"
         style="fill:none;stroke:#000000"
         d="m 212.59055,1095.3824 a 5.2086615,5.2086615 0 1 0 -10.41732,0 5.2086615,5.2086615 0 1 0 10.41732,0 z"
         inkscape:connector-curvature="0" />
      <path
         id="path47"
         style="fill:none;stroke:#000000"
         d="m 81.488193,1226.4848 a 5.2086615,5.2086615 0 1 0 -10.41732,0 5.2086615,5.2086615 0 1 0 10.41732,0 z"
         inkscape:connector-curvature="0" />
      <path
         id="path49"
         style="fill:none;stroke:#000000"
         d="m 212.59055,1226.4848 a 5.2086615,5.2086615 0 1 0 -10.41732,0 5.2086615,5.2086615 0 1 0 10.41732,0 z"
         inkscape:connector-curvature="0" />
      <g
         id="g109"
         inkscape:label="0"
         transform="translate(-74.285714,-188.57143)">
        <path
           id="path89"
           style="fill:none;stroke:#000000"
           d="m 212.59842,1052.3622 a 212.59842,212.59842 0 1 0 -425.19684,0 212.59842,212.59842 0 1 0 425.19684,0 z"
           inkscape:connector-curvature="0" />
        <path
           id="path91"
           style="fill:none;stroke:#000000"
           d="m 212.59842,1052.3622 a 212.59842,212.59842 0 1 0 -425.19684,0 212.59842,212.59842 0 1 0 425.19684,0 z"
           inkscape:connector-curvature="0" />
        <path
           id="path93"
           style="fill:none;stroke:#000000"
           d="m -118.70079,928.34645 a 5.314961,5.314961 0 1 0 -10.62992,0 5.314961,5.314961 0 1 0 10.62992,0 z"
           inkscape:connector-curvature="0" />
        <path
           id="path95"
           style="fill:none;stroke:#000000"
           d="m 129.33071,928.34646 a 5.314961,5.314961 0 1 0 -10.62992,0 5.314961,5.314961 0 1 0 10.62992,0 z"
           inkscape:connector-curvature="0" />
        <path
           id="path97"
           style="fill:none;stroke:#000000"
           d="m 129.33071,1176.378 a 5.314961,5.314961 0 1 0 -10.62992,0 5.314961,5.314961 0 1 0 10.62992,0 z"
           inkscape:connector-curvature="0" />
        <path
           id="path99"
           style="fill:none;stroke:#000000"
           d="m -118.70079,1176.378 a 5.314961,5.314961 0 1 0 -10.62992,0 5.314961,5.314961 0 1 0 10.62992,0 z"
           inkscape:connector-curvature="0" />
        <path
           id="path101"
           style="fill:none;stroke:#000000"
           d="m -115.60039,1139.1732 a 4.87205,4.87205 0 1 0 -9.7441,0 4.87205,4.87205 0 1 0 9.7441,0 z"
           inkscape:connector-curvature="0" />
        <path
           id="path103"
           style="fill:none;stroke:#000000"
           d="m 89.911417,1139.1732 a 4.872047,4.872047 0 1 0 -9.744094,0 4.872047,4.872047 0 1 0 9.744094,0 z"
           inkscape:connector-curvature="0" />
        <path
           id="path105"
           style="fill:none;stroke:#000000"
           d="m 89.911417,965.55118 a 4.872047,4.872047 0 1 0 -9.744094,0 4.872047,4.872047 0 1 0 9.744094,0 z"
           inkscape:connector-curvature="0" />
        <path
           id="path107"
           style="fill:none;stroke:#000000"
           d="m -115.60039,965.55118 a 4.87205,4.87205 0 1 0 -9.7441,0 4.87205,4.87205 0 1 0 9.7441,0 z"
           inkscape:connector-curvature="0" />
      </g>
      <g
         id="g228"
         inkscape:label="0"
         transform="translate(-71.428572,457.14287)">
        <path
           id="path202"
           style="fill:none;stroke:#000000"
           d="m 208.31271,1016.6479 a 212.59842,212.59842 0 1 0 -425.19684,0 212.59842,212.59842 0 1 0 425.19684,0 z"
           inkscape:connector-curvature="0" />
        <path
           id="path204"
           style="fill:none;stroke:#000000"
           d="m 208.31271,1016.6479 a 212.59842,212.59842 0 1 0 -425.19684,0 212.59842,212.59842 0 1 0 425.19684,0 z"
           inkscape:connector-curvature="0" />
        <path
           id="path206"
           style="fill:none;stroke:#000000"
           d="m -122.9865,1140.6637 a 5.314961,5.314961 0 1 0 -10.62992,0 5.314961,5.314961 0 1 0 10.62992,0 z"
           inkscape:connector-curvature="0" />
        <path
           id="path210"
           style="fill:none;stroke:#000000"
           d="m -122.9865,892.63217 a 5.314961,5.314961 0 1 0 -10.62992,0 5.314961,5.314961 0 1 0 10.62992,0 z"
           inkscape:connector-curvature="0" />
        <path
           id="path212"
           style="fill:none;stroke:#000000"
           d="m 125.045,1140.6637 a 5.314961,5.314961 0 1 0 -10.62992,0 5.314961,5.314961 0 1 0 10.62992,0 z"
           inkscape:connector-curvature="0" />
        <path
           id="path214"
           style="fill:none;stroke:#000000"
           d="m 125.045,892.63216 a 5.314961,5.314961 0 1 0 -10.62992,0 5.314961,5.314961 0 1 0 10.62992,0 z"
           inkscape:connector-curvature="0" />
        <path
           id="path216"
           style="fill:none;stroke:#000000"
           d="m -94.640045,940.46681 a 5.314961,5.314961 0 1 0 -10.629915,0 5.314961,5.314961 0 1 0 10.629915,0 z"
           inkscape:connector-curvature="0" />
        <path
           id="path218"
           style="fill:none;stroke:#000000"
           d="m -94.640045,1016.6479 a 5.314961,5.314961 0 1 0 -10.629915,0 5.314961,5.314961 0 1 0 10.629915,0 z"
           inkscape:connector-curvature="0" />
        <path
           id="path220"
           style="fill:none;stroke:#000000"
           d="m -94.640045,1092.829 a 5.314961,5.314961 0 1 0 -10.629915,0 5.314961,5.314961 0 1 0 10.629915,0 z"
           inkscape:connector-curvature="0" />
        <path
           id="path222"
           style="fill:none;stroke:#000000"
           d="m 96.698536,1092.829 a 5.314961,5.314961 0 1 0 -10.629919,0 5.314961,5.314961 0 1 0 10.629919,0 z"
           inkscape:connector-curvature="0" />
        <path
           id="path224"
           style="fill:none;stroke:#000000"
           d="m 96.698536,1016.6479 a 5.314961,5.314961 0 1 0 -10.629919,0 5.314961,5.314961 0 1 0 10.629919,0 z"
           inkscape:connector-curvature="0" />
        <path
           id="path226"
           style="fill:none;stroke:#000000"
           d="m 96.698536,940.46681 a 5.314961,5.314961 0 1 0 -10.629919,0 5.314961,5.314961 0 1 0 10.629919,0 z"
           inkscape:connector-curvature="0" />
      </g>
    </g>
  </g>
</svg>
