<?xml version="1.0" encoding="UTF-8" standalone="no"?>
<!-- Created with Inkscape (http://www.inkscape.org/) -->

<svg
   xmlns:dc="http://purl.org/dc/elements/1.1/"
   xmlns:cc="http://creativecommons.org/ns#"
   xmlns:rdf="http://www.w3.org/1999/02/22-rdf-syntax-ns#"
   xmlns:svg="http://www.w3.org/2000/svg"
   xmlns="http://www.w3.org/2000/svg"
   xmlns:sodipodi="http://sodipodi.sourceforge.net/DTD/sodipodi-0.dtd"
   xmlns:inkscape="http://www.inkscape.org/namespaces/inkscape"
   width="297mm"
   height="210mm"
   viewBox="0 0 297 210"
   version="1.1"
   id="svg8"
   inkscape:version="0.92.3 (2405546, 2018-03-11)"
   sodipodi:docname="auro.svg">
  <defs
     id="defs2">
    <marker
       style="overflow:visible"
       refY="0.0"
       refX="0.0"
       orient="auto"
       id="DistanceX">
      <path
         id="path12"
         style="stroke:#000000; stroke-width:0.5"
         d="M 3,-3 L -3,3 M 0,-5 L  0,5" />
    </marker>
    <symbol
       id="*MODEL_SPACE" />
    <symbol
       id="*PAPER_SPACE" />
    <marker
       style="overflow:visible"
       refY="0.0"
       refX="0.0"
       orient="auto"
       id="DistanceX-1">
      <path
         id="path91"
         style="stroke:#000000; stroke-width:0.5"
         d="M 3,-3 L -3,3 M 0,-5 L  0,5" />
    </marker>
    <symbol
       id="*MODEL_SPACE-3" />
    <symbol
       id="*PAPER_SPACE-2" />
    <marker
       style="overflow:visible"
       refY="0.0"
       refX="0.0"
       orient="auto"
       id="DistanceX-6">
      <path
         id="path155"
         style="stroke:#000000; stroke-width:0.5"
         d="M 3,-3 L -3,3 M 0,-5 L  0,5" />
    </marker>
    <symbol
       id="*MODEL_SPACE-5" />
    <symbol
       id="*PAPER_SPACE-1" />
  </defs>
  <sodipodi:namedview
     id="base"
     pagecolor="#ffffff"
     bordercolor="#666666"
     borderopacity="1.0"
     inkscape:pageopacity="0.0"
     inkscape:pageshadow="2"
     inkscape:zoom="0.35"
     inkscape:cx="400"
     inkscape:cy="560"
     inkscape:document-units="mm"
     inkscape:current-layer="layer1"
     showgrid="false"
     inkscape:window-width="1366"
     inkscape:window-height="705"
     inkscape:window-x="-8"
     inkscape:window-y="-8"
     inkscape:window-maximized="1" />
  <metadata
     id="metadata5">
    <rdf:RDF>
      <cc:Work
         rdf:about="">
        <dc:format>image/svg+xml</dc:format>
        <dc:type
           rdf:resource="http://purl.org/dc/dcmitype/StillImage" />
        <dc:title></dc:title>
      </cc:Work>
    </rdf:RDF>
  </metadata>
  <g
     inkscape:label="Layer 1"
     inkscape:groupmode="layer"
     id="layer1"
     transform="translate(0,-87)">
    <g
       id="g57"
       inkscape:label="0"
       transform="matrix(0.26458333,0,0,0.26458333,146.04315,-132.30125)">
      <path
         id="path19"
         style="fill:none;stroke:#000000"
         d="m 88.582677,859.09762 a 212.59842,212.59842 0 0 1 0,386.52918 v -86.9654 H -88.582677 v 86.9654 a 212.59842,212.59842 0 0 1 0,-386.52918 v 86.96537 H 88.582677 Z"
         inkscape:connector-curvature="0" />
      <path
         id="path21"
         style="fill:none;stroke:#000000"
         d="m -118.70079,1176.378 a 5.314961,5.314961 0 1 0 -10.62992,0 5.314961,5.314961 0 1 0 10.62992,0 z"
         inkscape:connector-curvature="0" />
      <path
         id="path23"
         style="fill:none;stroke:#000000"
         d="m -118.70079,928.34646 a 5.314961,5.314961 0 1 0 -10.62992,0 5.314961,5.314961 0 1 0 10.62992,0 z"
         inkscape:connector-curvature="0" />
      <path
         id="path25"
         style="fill:none;stroke:#000000"
         d="m 129.33071,928.34645 a 5.314961,5.314961 0 1 0 -10.62992,0 5.314961,5.314961 0 1 0 10.62992,0 z"
         inkscape:connector-curvature="0" />
      <path
         id="path27"
         style="fill:none;stroke:#000000"
         d="m 129.33071,1176.378 a 5.314961,5.314961 0 1 0 -10.62992,0 5.314961,5.314961 0 1 0 10.62992,0 z"
         inkscape:connector-curvature="0" />
      <path
         id="path29"
         style="fill:none;stroke:#000000"
         d="m -178.51181,986.81102 a 5.2086615,5.2086615 0 1 0 -10.41732,0 5.2086615,5.2086615 0 1 0 10.41732,0 z"
         inkscape:connector-curvature="0" />
      <path
         id="path31"
         style="fill:none;stroke:#000000"
         d="m -47.409449,986.81102 a 5.2086615,5.2086615 0 1 0 -10.417323,0 5.2086615,5.2086615 0 1 0 10.417323,0 z"
         inkscape:connector-curvature="0" />
      <path
         id="path33"
         style="fill:none;stroke:#000000"
         d="m -178.51181,1117.9134 a 5.2086615,5.2086615 0 1 0 -10.41732,0 5.2086615,5.2086615 0 1 0 10.41732,0 z"
         inkscape:connector-curvature="0" />
      <path
         id="path35"
         style="fill:none;stroke:#000000"
         d="m -47.409449,1117.9134 a 5.2086615,5.2086615 0 1 0 -10.417323,0 5.2086615,5.2086615 0 1 0 10.417323,0 z"
         inkscape:connector-curvature="0" />
      <path
         id="path37"
         style="fill:none;stroke:#000000"
         d="m -24.80315,962.00787 a 3.543307,3.543307 0 1 0 -7.086614,0 3.543307,3.543307 0 1 0 7.086614,0 z"
         inkscape:connector-curvature="0" />
      <path
         id="path39"
         style="fill:none;stroke:#000000"
         d="m 31.889764,962.00787 a 3.543307,3.543307 0 1 0 -7.086614,0 3.543307,3.543307 0 1 0 7.086614,0 z"
         inkscape:connector-curvature="0" />
      <path
         id="path41"
         style="fill:none;stroke:#000000"
         d="m 31.889764,1142.7165 a 3.543307,3.543307 0 1 0 -7.086614,0 3.543307,3.543307 0 1 0 7.086614,0 z"
         inkscape:connector-curvature="0" />
      <path
         id="path43"
         style="fill:none;stroke:#000000"
         d="m -24.80315,1142.7165 a 3.543307,3.543307 0 1 0 -7.086614,0 3.543307,3.543307 0 1 0 7.086614,0 z"
         inkscape:connector-curvature="0" />
      <path
         id="path45"
         style="fill:none;stroke:#000000"
         d="m 164.76378,999.2126 a 5.314961,5.314961 0 1 0 -10.62992,0 5.314961,5.314961 0 1 0 10.62992,0 z"
         inkscape:connector-curvature="0" />
      <path
         id="path47"
         style="fill:none;stroke:#000000"
         d="m 164.76378,1105.5118 a 5.314961,5.314961 0 1 0 -10.62992,0 5.314961,5.314961 0 1 0 10.62992,0 z"
         inkscape:connector-curvature="0" />
      <path
         id="path49"
         style="fill:none;stroke:#000000"
         d="m -166.53543,1078.937 a 3.54331,3.54331 0 1 0 -7.08662,0 3.54331,3.54331 0 1 0 7.08662,0 z"
         inkscape:connector-curvature="0" />
      <path
         id="path51"
         style="fill:none;stroke:#000000"
         d="m -166.53543,1025.7874 a 3.54331,3.54331 0 1 0 -7.08662,0 3.54331,3.54331 0 1 0 7.08662,0 z"
         inkscape:connector-curvature="0" />
      <path
         id="path53"
         style="fill:none;stroke:#000000"
         d="m 173.62205,1025.7874 a 3.54331,3.54331 0 1 0 -7.08662,0 3.54331,3.54331 0 1 0 7.08662,0 z"
         inkscape:connector-curvature="0" />
      <path
         id="path55"
         style="fill:none;stroke:#000000"
         d="m 173.62205,1078.937 a 3.54331,3.54331 0 1 0 -7.08662,0 3.54331,3.54331 0 1 0 7.08662,0 z"
         inkscape:connector-curvature="0" />
    </g>
    <g
       id="g126"
       inkscape:label="0"
       transform="matrix(0.26458333,0,0,0.26458333,63.500003,-44.181543)">
      <path
         id="path98"
         style="fill:none;stroke:#000000"
         d="m 212.59842,1052.3622 a 212.59842,212.59842 0 1 0 -425.19684,0 212.59842,212.59842 0 1 0 425.19684,0 z"
         inkscape:connector-curvature="0" />
      <path
         id="path100"
         style="fill:none;stroke:#000000"
         d="m -118.70079,928.34645 a 5.314961,5.314961 0 1 0 -10.62992,0 5.314961,5.314961 0 1 0 10.62992,0 z"
         inkscape:connector-curvature="0" />
      <path
         id="path102"
         style="fill:none;stroke:#000000"
         d="m 129.33071,928.34646 a 5.314961,5.314961 0 1 0 -10.62992,0 5.314961,5.314961 0 1 0 10.62992,0 z"
         inkscape:connector-curvature="0" />
      <path
         id="path104"
         style="fill:none;stroke:#000000"
         d="m 129.33071,1176.378 a 5.314961,5.314961 0 1 0 -10.62992,0 5.314961,5.314961 0 1 0 10.62992,0 z"
         inkscape:connector-curvature="0" />
      <path
         id="path106"
         style="fill:none;stroke:#000000"
         d="m -118.70079,1176.378 a 5.314961,5.314961 0 1 0 -10.62992,0 5.314961,5.314961 0 1 0 10.62992,0 z"
         inkscape:connector-curvature="0" />
      <path
         id="path108"
         style="fill:none;stroke:#000000"
         d="m -115.60039,1139.1732 a 4.87205,4.87205 0 1 0 -9.7441,0 4.87205,4.87205 0 1 0 9.7441,0 z"
         inkscape:connector-curvature="0" />
      <path
         id="path110"
         style="fill:none;stroke:#000000"
         d="m 89.911417,1139.1732 a 4.872047,4.872047 0 1 0 -9.744094,0 4.872047,4.872047 0 1 0 9.744094,0 z"
         inkscape:connector-curvature="0" />
      <path
         id="path112"
         style="fill:none;stroke:#000000"
         d="m 89.911417,965.55118 a 4.872047,4.872047 0 1 0 -9.744094,0 4.872047,4.872047 0 1 0 9.744094,0 z"
         inkscape:connector-curvature="0" />
      <path
         id="path114"
         style="fill:none;stroke:#000000"
         d="m -115.60039,965.55118 a 4.87205,4.87205 0 1 0 -9.7441,0 4.87205,4.87205 0 1 0 9.7441,0 z"
         inkscape:connector-curvature="0" />
      <path
         id="path116"
         style="fill:none;stroke:#000000"
         d="m -9.719078,1213.5827 h -74.409449 a 7.086614,7.086614 0 0 1 -7.086614,-7.0866 v -3.5433 a 7.086614,7.086614 0 0 1 7.086614,-7.0867 h 74.409449 a 7.086614,7.086614 0 0 1 7.086614,7.0867 v 3.5433 a 7.086614,7.086614 0 0 1 -7.086614,7.0866 z"
         inkscape:connector-curvature="0" />
      <path
         id="path118"
         style="fill:none;stroke:#000000"
         d="m -82.356873,1176.378 a 8.8582685,8.8582685 0 1 0 -17.716537,0 8.8582685,8.8582685 0 1 0 17.716537,0 z"
         inkscape:connector-curvature="0" />
      <path
         id="path120"
         style="fill:none;stroke:#000000"
         d="m 6.225804,1176.378 a 8.858268,8.858268 0 1 0 -17.716536,0 8.858268,8.858268 0 1 0 17.716536,0 z"
         inkscape:connector-curvature="0" />
      <path
         id="path122"
         style="fill:none;stroke:#000000"
         d="m 157.67716,1169.2913 a 5.314961,5.314961 0 1 0 -10.62992,0 5.314961,5.314961 0 1 0 10.62992,0 z"
         inkscape:connector-curvature="0" />
      <path
         id="path124"
         style="fill:none;stroke:#000000"
         d="m 157.67716,935.43307 a 5.314961,5.314961 0 1 0 -10.62992,0 5.314961,5.314961 0 1 0 10.62992,0 z"
         inkscape:connector-curvature="0" />
    </g>
    <g
       id="g196"
       inkscape:label="0"
       transform="matrix(0.26458333,0,0,0.26458333,235.09078,-43.415087)">
      <path
         id="path162"
         style="fill:none;stroke:#000000"
         d="m 212.63778,1052.3225 a 212.59843,212.59843 0 1 0 -425.19685,0 212.59843,212.59843 0 1 0 425.19685,0 z"
         inkscape:connector-curvature="0" />
      <path
         id="path164"
         style="fill:none;stroke:#000000"
         d="m 129.33071,928.34646 a 5.314961,5.314961 0 1 0 -10.62992,0 5.314961,5.314961 0 1 0 10.62992,0 z"
         inkscape:connector-curvature="0" />
      <path
         id="path166"
         style="fill:none;stroke:#000000"
         d="m 129.33071,1176.378 a 5.314961,5.314961 0 1 0 -10.62992,0 5.314961,5.314961 0 1 0 10.62992,0 z"
         inkscape:connector-curvature="0" />
      <path
         id="path168"
         style="fill:none;stroke:#000000"
         d="m -118.70079,1176.378 a 5.314961,5.314961 0 1 0 -10.62992,0 5.314961,5.314961 0 1 0 10.62992,0 z"
         inkscape:connector-curvature="0" />
      <path
         id="path170"
         style="fill:none;stroke:#000000"
         d="m -118.70079,928.34645 a 5.314961,5.314961 0 1 0 -10.62992,0 5.314961,5.314961 0 1 0 10.62992,0 z"
         inkscape:connector-curvature="0" />
      <path
         id="path172"
         style="fill:none;stroke:#000000"
         d="m 81.535415,956.65322 a 5.314961,5.314961 0 1 0 -10.629921,0 5.314961,5.314961 0 1 0 10.629921,0 z"
         inkscape:connector-curvature="0" />
      <path
         id="path174"
         style="fill:none;stroke:#000000"
         d="m 5.354313,956.65322 a 5.314961,5.314961 0 1 0 -10.629922,0 5.314961,5.314961 0 1 0 10.629922,0 z"
         inkscape:connector-curvature="0" />
      <path
         id="path176"
         style="fill:none;stroke:#000000"
         d="m -70.82679,956.65322 a 5.314961,5.314961 0 1 0 -10.629921,0 5.314961,5.314961 0 1 0 10.629921,0 z"
         inkscape:connector-curvature="0" />
      <path
         id="path178"
         style="fill:none;stroke:#000000"
         d="m 81.535415,1147.9918 a 5.314961,5.314961 0 1 0 -10.629921,0 5.314961,5.314961 0 1 0 10.629921,0 z"
         inkscape:connector-curvature="0" />
      <path
         id="path180"
         style="fill:none;stroke:#000000"
         d="m 5.354313,1147.9918 a 5.314961,5.314961 0 1 0 -10.629922,0 5.314961,5.314961 0 1 0 10.629922,0 z"
         inkscape:connector-curvature="0" />
      <path
         id="path182"
         style="fill:none;stroke:#000000"
         d="m -70.82679,1147.9918 a 5.314961,5.314961 0 1 0 -10.629921,0 5.314961,5.314961 0 1 0 10.629921,0 z"
         inkscape:connector-curvature="0" />
      <path
         id="path184"
         style="fill:none;stroke:#000000"
         d="m 129.53917,952.91463 a 5.314961,5.314961 0 1 0 -10.62992,0 5.314961,5.314961 0 1 0 10.62992,0 z"
         inkscape:connector-curvature="0" />
      <path
         id="path186"
         style="fill:none;stroke:#000000"
         d="m -118.43383,981.71918 a 5.314961,5.314961 0 1 0 -10.62992,0 5.314961,5.314961 0 1 0 10.62992,0 z"
         inkscape:connector-curvature="0" />
      <path
         id="path188"
         style="fill:none;stroke:#000000"
         d="m -118.43383,1123.0052 a 5.314961,5.314961 0 1 0 -10.62992,0 5.314961,5.314961 0 1 0 10.62992,0 z"
         inkscape:connector-curvature="0" />
      <path
         id="path190"
         style="fill:none;stroke:#000000"
         d="m 129.53917,1151.8098 a 5.314961,5.314961 0 1 0 -10.62992,0 5.314961,5.314961 0 1 0 10.62992,0 z"
         inkscape:connector-curvature="0" />
      <path
         id="path192"
         style="fill:none;stroke:#000000"
         d="m -123.39446,1002.7559 h -0.70866 a 4.96063,4.96063 0 0 0 -4.96063,4.9606 v 89.2914 a 4.96063,4.96063 0 0 0 4.96063,4.9606 h 0.70866 a 4.96063,4.96063 0 0 0 4.96063,-4.9606 v -89.2914 a 4.96063,4.96063 0 0 0 -4.96063,-4.9606 z"
         inkscape:connector-curvature="0" />
      <path
         id="path194"
         style="fill:none;stroke:#000000"
         d="m 129.06375,1007.7165 v 89.2914 a 4.96063,4.96063 0 0 1 -4.96063,4.9606 h -0.70866 a 4.96063,4.96063 0 0 1 -4.96063,-4.9606 v -89.2914 a 4.96063,4.96063 0 0 1 4.96063,-4.9606 h 0.70866 a 4.96063,4.96063 0 0 1 4.96063,4.9606 z"
         inkscape:connector-curvature="0" />
    </g>
  </g>
</svg>
